<?xml version="1.0" encoding="utf-8"?>
<!-- Generator: Adobe Illustrator 26.0.1, SVG Export Plug-In . SVG Version: 6.00 Build 0)  -->
<svg version="1.1" id="Layer_1" xmlns="http://www.w3.org/2000/svg" xmlns:xlink="http://www.w3.org/1999/xlink" x="0px" y="0px"
	 viewBox="0 0 135.3 135.3" style="enable-background:new 0 0 135.3 135.3;" xml:space="preserve">
<style type="text/css">
	.st0{fill:#ABABAB;}
</style>
<path class="st0" d="M67.7,0C30.4,0,0,30.4,0,67.7s30.4,67.7,67.7,67.7s67.7-30.3,67.7-67.7S105,0,67.7,0z M67.7,119.3
	C39.2,119.3,16,96.2,16,67.7S39.2,16,67.7,16s51.7,23.2,51.7,51.7S96.2,119.3,67.7,119.3z"/>
<path class="st0" d="M100.8,56.2L65.1,91.9c-1.8,1.8-4.1,2.6-6.4,2.6c-2.3,0-4.6-0.9-6.4-2.6L34.5,74c-3.5-3.5-3.5-9.2,0-12.7
	c3.5-3.5,9.2-3.5,12.7,0l11.5,11.5l29.3-29.3c3.5-3.5,9.2-3.5,12.7,0C104.3,47,104.3,52.7,100.8,56.2z"/>
</svg>
