<?xml version="1.0" encoding="utf-8"?>
<!-- Generator: Adobe Illustrator 26.0.1, SVG Export Plug-In . SVG Version: 6.00 Build 0)  -->
<svg version="1.1" id="Layer_1" xmlns="http://www.w3.org/2000/svg" xmlns:xlink="http://www.w3.org/1999/xlink" x="0px" y="0px"
	 viewBox="0 0 110 110" style="enable-background:new 0 0 110 110;" xml:space="preserve">
<style type="text/css">
	.st0{fill:#A89183;}
</style>
<path class="st0" d="M55,0C24.7,0,0,24.7,0,55c0,30.3,24.7,55,55,55c30.3,0,55-24.7,55-55C110,24.7,85.3,0,55,0z M55,100
	c-24.8,0-45-20.2-45-45s20.2-45,45-45s45,20.2,45,45S79.8,100,55,100z"/>
<path class="st0" d="M78.5,58.5l-20,20c-0.4,0.4-0.8,0.7-1.3,1c-0.1,0-0.2,0.1-0.3,0.1c-0.3,0.1-0.6,0.2-0.9,0.3
	c-0.2,0-0.3,0.1-0.5,0.1c-0.2,0-0.3,0-0.5,0s-0.3,0-0.5,0c-0.2,0-0.3,0-0.5-0.1c-0.3-0.1-0.6-0.1-0.9-0.3c-0.1,0-0.2-0.1-0.3-0.1
	c-0.5-0.2-1-0.6-1.3-1l-20-20c-2-2-2-5.1,0-7.1c2-2,5.1-2,7.1,0L50,62.9V35c0-2.8,2.2-5,5-5s5,2.2,5,5v27.9l11.5-11.5
	c2-2,5.1-2,7.1,0C80.5,53.4,80.5,56.6,78.5,58.5z"/>
</svg>
