<?xml version="1.0" encoding="utf-8"?>
<!-- Generator: Adobe Illustrator 26.0.1, SVG Export Plug-In . SVG Version: 6.00 Build 0)  -->
<svg version="1.1" id="Layer_1" xmlns="http://www.w3.org/2000/svg" xmlns:xlink="http://www.w3.org/1999/xlink" x="0px" y="0px"
	 viewBox="0 0 80 40" style="enable-background:new 0 0 80 40;" xml:space="preserve">
<style type="text/css">
	.st0{opacity:0.1;fill:#716462;}
	.st1{fill:#716462;}
</style>
<g>
	<path class="st0" d="M26.9,12.5c0.7-0.7,1.9-0.7,2.6,0c0.7,0.7,0.7,1.9,0,2.6l-9.9,12.4c-0.7,0.8-1.9,0.8-2.6,0.1c0,0,0,0,0,0
		l-6.5-6.5c-0.8-0.7-0.8-1.9-0.1-2.6c0.7-0.8,1.9-0.8,2.6-0.1c0,0,0.1,0.1,0.1,0.1l5.2,5.2L26.9,12.5C26.9,12.5,26.9,12.5,26.9,12.5
		L26.9,12.5z"/>
	<path class="st1" d="M34.9,2.5c1.4,0,2.6,1.2,2.6,2.6v29.8c0,1.4-1.2,2.6-2.6,2.6H5.1c-1.4,0-2.6-1.2-2.6-2.6V5.1
		c0-1.4,1.2-2.6,2.6-2.6H34.9 M34.9,0H5.1C2.3,0,0,2.3,0,5.1v29.8C0,37.7,2.3,40,5.1,40h29.8c2.8,0,5.1-2.3,5.1-5.1V5.1
		C40,2.3,37.7,0,34.9,0L34.9,0z"/>
</g>
<g>
	<path class="st1" d="M66.9,12.5c0.7-0.7,1.9-0.7,2.6,0c0.7,0.7,0.7,1.9,0,2.6l-9.9,12.4c-0.7,0.8-1.9,0.8-2.6,0.1c0,0,0,0,0,0
		l-6.5-6.5c-0.8-0.7-0.8-1.9-0.1-2.6c0.7-0.8,1.9-0.8,2.6-0.1c0,0,0.1,0.1,0.1,0.1l5.2,5.2L66.9,12.5C66.9,12.5,66.9,12.5,66.9,12.5
		L66.9,12.5z"/>
	<path class="st1" d="M74.9,2.5c1.4,0,2.6,1.2,2.6,2.6v29.8c0,1.4-1.2,2.6-2.6,2.6H45.1c-1.4,0-2.6-1.2-2.6-2.6V5.1
		c0-1.4,1.2-2.6,2.6-2.6H74.9 M74.9,0H45.1C42.3,0,40,2.3,40,5.1v29.8c0,2.8,2.3,5.1,5.1,5.1h29.9c2.8,0,5.1-2.3,5.1-5.1V5.1
		C80,2.3,77.7,0,74.9,0L74.9,0z"/>
</g>
</svg>
