<?xml version="1.0" encoding="utf-8"?>
<!-- Generator: Adobe Illustrator 26.0.1, SVG Export Plug-In . SVG Version: 6.00 Build 0)  -->
<svg version="1.1" id="Layer_1" xmlns="http://www.w3.org/2000/svg" xmlns:xlink="http://www.w3.org/1999/xlink" x="0px" y="0px"
	 viewBox="0 0 120 120" style="enable-background:new 0 0 120 120;" xml:space="preserve">
<style type="text/css">
	.st0{fill:#716462;}
	.st1{opacity:5.000000e-02;fill:#716462;}
</style>
<path class="st0" d="M105,7.5c4.1,0,7.5,3.4,7.5,7.5v90c0,4.1-3.4,7.5-7.5,7.5H15c-4.1,0-7.5-3.4-7.5-7.5V15c0-4.1,3.4-7.5,7.5-7.5
	H105z M15,0C6.7,0,0,6.7,0,15v90c0,8.3,6.7,15,15,15h90c8.3,0,15-6.7,15-15V15c0-8.3-6.7-15-15-15H15z"/>
<path class="st1" d="M82.3,37.3c2.2-2.2,5.8-2.2,8,0c2.1,2.2,2.2,5.6,0.1,7.8L60.4,82.6c-2.1,2.3-5.7,2.4-7.9,0.3
	c-0.1,0-0.1-0.1-0.2-0.1L32.4,62.9c-2.3-2.1-2.4-5.7-0.3-7.9c2.1-2.3,5.7-2.4,8-0.3c0.1,0.1,0.2,0.2,0.3,0.3l15.7,15.7l26-33.2
	C82.2,37.4,82.2,37.3,82.3,37.3L82.3,37.3z"/>
</svg>
