<?xml version="1.0" encoding="utf-8"?>
<!-- Generator: Adobe Illustrator 26.0.1, SVG Export Plug-In . SVG Version: 6.00 Build 0)  -->
<svg version="1.1" id="Layer_1" xmlns="http://www.w3.org/2000/svg" xmlns:xlink="http://www.w3.org/1999/xlink" x="0px" y="0px"
	 viewBox="0 0 222.8 148.8" style="enable-background:new 0 0 222.8 148.8;" xml:space="preserve">
<style type="text/css">
	.st0{fill:none;}
	.st1{fill:#655848;}
</style>
<rect x="44" class="st0" width="148.8" height="148.8"/>
<path class="st1" d="M159.9,5.3l58.5,58.5c2.9,2.9,4.4,6.8,4.4,10.6s-1.5,7.7-4.4,10.6l-58.5,58.5c-5.9,5.9-15.4,5.9-21.2,0
	c-5.9-5.9-5.9-15.4,0-21.2l47.9-47.9l-47.9-47.9c-5.9-5.9-5.9-15.4,0-21.2C144.5-0.6,154-0.6,159.9,5.3z"/>
<path class="st1" d="M62.9,5.3L4.4,63.8C1.5,66.7,0,70.6,0,74.4S1.5,82.1,4.4,85l58.5,58.5c5.9,5.9,15.4,5.9,21.2,0
	c5.9-5.9,5.9-15.4,0-21.2L36.2,74.4l47.9-47.9c5.9-5.9,5.9-15.4,0-21.2C78.3-0.6,68.8-0.6,62.9,5.3z"/>
</svg>
